<svg xmlns="http://www.w3.org/2000/svg" viewBox="0 0 64 64" width="64" height="64">
  <!-- Background -->
  <rect width="64" height="64" rx="12" fill="#1f2937"/>
  
  <!-- Door Frame -->
  <rect x="16" y="8" width="32" height="48" rx="2" fill="#374151" stroke="#60a5fa" stroke-width="2"/>
  
  <!-- Door Panel -->
  <rect x="18" y="10" width="28" height="44" rx="1" fill="#4b5563"/>
  
  <!-- Door Handle -->
  <circle cx="40" cy="32" r="3" fill="#60a5fa"/>
  <circle cx="40" cy="32" r="1.5" fill="#1f2937"/>
  
  <!-- Door Panel Details -->
  <rect x="20" y="14" width="24" height="16" rx="1" fill="#374151"/>
  <rect x="20" y="34" width="24" height="16" rx="1" fill="#374151"/>
  
  <!-- Hinges -->
  <rect x="16" y="12" width="2" height="6" rx="1" fill="#60a5fa"/>
  <rect x="16" y="24" width="2" height="6" rx="1" fill="#60a5fa"/>
  <rect x="16" y="36" width="2" height="6" rx="1" fill="#60a5fa"/>
  <rect x="16" y="48" width="2" height="6" rx="1" fill="#60a5fa"/>
  
  <!-- Calculator/Estimator Symbol -->
  <rect x="52" y="8" width="8" height="12" rx="1" fill="#60a5fa"/>
  <rect x="53" y="10" width="6" height="2" rx="0.5" fill="#1f2937"/>
  <rect x="53" y="13" width="6" height="1" rx="0.5" fill="#1f2937"/>
  <rect x="53" y="15" width="6" height="1" rx="0.5" fill="#1f2937"/>
  <rect x="53" y="17" width="6" height="1" rx="0.5" fill="#1f2937"/>
</svg>